{"title":"The Challenger Disaster 2013 HDRip XviD AC3 titler","uid":8867942,"size":863830821,"categoryP":"video","categoryS":"movies","magnet":"?xt=urn:btih:854934cef3023810d2c252ef96e213ac18d021f4&amp;dn=The+Challenger+Disaster+2013+HDRip+XviD+AC3+titler&amp;tr=udp%3A%2F%2Ftracker.openbittorrent.com%3A80&amp;tr=udp%3A%2F%2Fopen.demonii.com%3A1337&amp;tr=udp%3A%2F%2Ftracker.coppersurfer.tk%3A6969&amp;tr=udp%3A%2F%2Fexodus.desync.com%3A6969","seeders":1,"leechers":0,"uploader":"movieZ.freak","files":4,"time":1377975614,"description":"SOURCE: 720p HDTV\n\n\nAKA &quot;Feynman and the Challenger&quot;\n\n &lt;a href=&quot;\nhttp://www.imdb.com/title/tt2421662/&quot; rel=&quot;nofollow&quot; target=&quot;_NEW&quot;&gt;\nhttp://www.imdb.com/title/tt2421662/&lt;/a&gt;\n\n &lt;a href=&quot;\nhttp://en.wikipedia.org/wiki/Space_Shuttle_Challenger_disaster&quot; rel=&quot;nofollow&quot; target=&quot;_NEW&quot;&gt;\nhttp://en.wikipedia.org/wiki/Space_Shuttle_Challenger_disaster&lt;/a&gt;\n\n\n\n- SAMPLE: Yes\n\n- SUBTITLE: English\n\n- LANGUAGE: English\n\n\n\nSCREENSHOTS:\n-------------------\n &lt;a href=&quot;\nhttp://someimage.com/Ga1F&quot; rel=&quot;nofollow&quot; target=&quot;_NEW&quot;&gt;\nhttp://someimage.com/Ga1F&lt;/a&gt;\n\n\n\nDIRECTOR: James Hawes\n\n\nCAST: William Hurt, Bruce Greenwood, Joanne Whalley, Brian Dennehy, Kevin McNally, Eve Best\n\n\n\nPLOT:\n--------\nWhen Challenger exploded 73 seconds into its flight on the morning of 28 January 1986, it represented one of the most shocking events in the history of American spaceflight. A Presidential Commission was immediately convened to explore what\nhad gone wrong, but with the vast complexity of the space shuttle and so many vested interests involved in the investigation, discovering the truth presented an almost impossible challenge. A truly independent member of the investigation was Richard Feynman. One of the most accomplished scientists of his generation, he worked on the Manhattan Project building the first atom bomb and won the Nobel Prize for his breakthroughs in quantum physics. Feynman deployed exceptional\nintegrity, charm and relentless scientific logic to investigate the secrets of the Shuttle disaster and in doing so, helped make the US Space Programme safer. \n\n\nGeneral\n--------------\nFormat : AVI\nFormat/Info : Audio Video Interleave\nFile size : 809 MiB\nDuration : 1h 29mn\nOverall bit rate : 1266 Kbps\nWriting library : VirtualDub build 32842\n\n\nVideo\n-----------\nFormat : MPEG-4 Visual\nFormat profile : Advanced Simple@L5\nFormat settings, BVOP : 2\nFormat settings, QPel : No\nFormat settings, GMC : No warppoints\nFormat settings, Matrix : Default (H.263)\nCodec ID : XVID\nCodec ID/Hint : XviD\nDuration : 1h 29mn\nBit rate : 1032 Kbps\nWidth : 640 pixels\nHeight : 360 pixels\nDisplay aspect ratio : 16:9\nFrame rate : 25.000 fps\nColor space : YUV\nChroma subsampling : 4:2:0\nBit depth : 8 bits\nScan type : Progressive\nCompression mode : Lossy\nBits/(Pixel*Frame) : 0.179\nStream size : 659 MiB (82%)\nWriting library : XviD 64\n\n\nAudio\n------------\nFormat : AC-3\nFormat/Info : Audio Coding 3\nMode extension : CM (complete main)\nFormat settings, Endianness : Big\nCodec ID : 2000\nDuration : 1h 29mn\nBit rate mode : Constant\nBit rate : 224 Kbps\nChannel(s) : 2 channels\nChannel positions : Front: L R\nSampling rate : 48.0 KHz\nBit depth : 16 bits\nCompression mode : Lossy\nStream size : 143 MiB (18%)\nAlignment : Aligned on interleaves\nInterleave, duration : 40 ms (1.00 video frame)\nInterleave, preload duration : 512 ms","torrent":{"xt":"urn:btih:854934cef3023810d2c252ef96e213ac18d021f4","amp;dn":"The+Challenger+Disaster+2013+HDRip+XviD+AC3+titler","amp;tr":["udp%3A%2F%2Ftracker.openbittorrent.com%3A80","udp%3A%2F%2Fopen.demonii.com%3A1337","udp%3A%2F%2Ftracker.coppersurfer.tk%3A6969","udp%3A%2F%2Fexodus.desync.com%3A6969"],"infoHash":"854934cef3023810d2c252ef96e213ac18d021f4","infoHashBuffer":{"type":"Buffer","data":[133,73,52,206,243,2,56,16,210,194,82,239,150,226,19,172,24,208,33,244]},"announce":[],"urlList":[]}}